<?xml version="1.0" encoding="utf-8"?>
<!-- Generator: Adobe Illustrator 26.0.2, SVG Export Plug-In . SVG Version: 6.00 Build 0)  -->
<svg version="1.1" id="Layer_1" xmlns="http://www.w3.org/2000/svg" xmlns:xlink="http://www.w3.org/1999/xlink" x="0px" y="0px"
	 viewBox="0 0 668 582" style="enable-background:new 0 0 668 582;" xml:space="preserve">
<style type="text/css">
	.st0{fill:url(#SVGID_1_);fill-opacity:0.4;}
	.st1{fill:url(#SVGID_00000031904334087463623850000014597214830005697424_);fill-opacity:0.5;}
	.st2{fill:none;stroke:url(#SVGID_00000141428306652495599610000017253831359333646771_);stroke-width:4;}
	.st3{fill-rule:evenodd;clip-rule:evenodd;fill:#F5841F;}
</style>
<g>
	
		<radialGradient id="SVGID_1_" cx="-60.9681" cy="598.0967" r="1" gradientTransform="matrix(42.0804 575.2389 617.0043 -45.1356 -366222.3438 62057.543)" gradientUnits="userSpaceOnUse">
		<stop  offset="5.208330e-03" style="stop-color:#ECF5FC"/>
		<stop  offset="1" style="stop-color:#CEE4F3"/>
	</radialGradient>
	<path class="st0" d="M336.2,557.4c149.8,0,271.2-121,271.2-270.2S486,17,336.2,17C186.4,17,65,138,65,287.2
		S186.4,557.4,336.2,557.4z"/>
	
		<linearGradient id="SVGID_00000001658316985618578530000011245124649313820815_" gradientUnits="userSpaceOnUse" x1="336.185" y1="567" x2="336.185" y2="26.624" gradientTransform="matrix(1 0 0 -1 0 584)">
		<stop  offset="0" style="stop-color:#FFFFFF"/>
		<stop  offset="1" style="stop-color:#FFFFFF;stop-opacity:0"/>
	</linearGradient>
	<path style="fill:url(#SVGID_00000001658316985618578530000011245124649313820815_);fill-opacity:0.5;" d="M336.2,557.4
		c149.8,0,271.2-121,271.2-270.2S486,17,336.2,17C186.4,17,65,138,65,287.2S186.4,557.4,336.2,557.4z"/>
	
		<linearGradient id="SVGID_00000142865168636858985630000000476902304394785718_" gradientUnits="userSpaceOnUse" x1="200.1383" y1="530.592" x2="473.6003" y2="60.6802" gradientTransform="matrix(1 0 0 -1 0 584)">
		<stop  offset="0" style="stop-color:#FFFFFF"/>
		<stop  offset="1" style="stop-color:#FFFFFF;stop-opacity:0"/>
	</linearGradient>
	<path style="fill:none;stroke:url(#SVGID_00000142865168636858985630000000476902304394785718_);stroke-width:4;" d="M605.4,287.2
		c0,148.1-120.5,268.2-269.2,268.2S67,435.3,67,287.2S187.5,19,336.2,19S605.4,139.1,605.4,287.2z"/>
</g>
<g>
	<path class="st3" d="M333,76c20.7,29,40.2,56.2,59.6,83.4c-1.1,1.2-2.1,2.4-3.2,3.6c-18.2-13.9-36.4-27.9-55.5-42.4
		c-16.6,23.3-34.4,47.8-51.2,72.9c-2,3-0.6,10.3,1.8,13.9c18.2,27.1,37,53.8,55.6,80.6c2.6,3.8,4.6,8.2,5,15.1
		c-14-4-27.9-7.9-41.9-12c-21.9-6.5-43.6-13.5-65.6-19.4c-4-1.1-11.2,0.7-13.4,3.7c-17.8,24-34.8,48.7-52,73.2
		c13.7,8.8,26.8,17.3,39.9,25.8c-0.5,1.3-1.1,2.7-1.7,4c-29.6,0-59.3,0-93.5,0C188.8,276.3,260.3,177.1,333,76z"/>
	<path class="st3" d="M398.4,378.9c4.9-8,7.6-14.9,12.4-19.6c7.8-7.6,5.5-13.6,0.2-20.9c-28.8-40.3-57.5-80.8-86.1-121.2
		c-1.9-2.7-3.2-5.8-4.9-8.8c1-1,2-2.1,3-3.1c74.7,56.5,149.5,113.1,224.2,169.6c-0.7,1.3-1.4,2.6-2.1,4
		C497.5,378.9,449.7,378.9,398.4,378.9z"/>
	<path class="st3" d="M334.7,374.7c-37.5,13.9-87.1-0.6-106.6-31.4C263.7,353.8,299.2,364.3,334.7,374.7z"/>
</g>
</svg>
